HIERARCHY
ROOT Hips
{
	OFFSET 0.000000 0.000000 0.000000 
	CHANNELS 6 Xposition Yposition Zposition Zrotation Yrotation Xrotation
	JOINT LeftUpLeg
	{
		OFFSET 1.363060 -1.794630 0.839290 
		CHANNELS 3 Zrotation Yrotation Xrotation
		JOINT LeftLeg
		{
			OFFSET 2.448110 -6.726130 0.000000 
			CHANNELS 3 Zrotation Yrotation Xrotation
			JOINT LeftFoot
			{
				OFFSET 2.562200 -7.039590 0.000000 
				CHANNELS 3 Zrotation Yrotation Xrotation
				JOINT LeftToeBase
				{
					OFFSET 0.157640 -0.433110 2.322550 
					CHANNELS 3 Zrotation Yrotation Xrotation
					End Site
					{
						OFFSET 0.000000 0.000000 0.000000 
					}
				}
			}
		}
	}
	JOINT RightUpLeg
	{
		OFFSET -1.305520 -1.794630 0.839290 
		CHANNELS 3 Zrotation Yrotation Xrotation
		JOINT RightLeg
		{
			OFFSET -2.542530 -6.985550 0.000000 
			CHANNELS 3 Zrotation Yrotation Xrotation
			JOINT RightFoot
			{
				OFFSET -2.568260 -7.056230 0.000000 
				CHANNELS 3 Zrotation Yrotation Xrotation
				JOINT RightToeBase
				{
					OFFSET -0.164730 -0.452590 2.363150 
					CHANNELS 3 Zrotation Yrotation Xrotation
					End Site
					{
						OFFSET 0.000000 0.000000 0.000000 
					}
				}
			}
		}
	}
	JOINT Spine
	{
		OFFSET 0.028270 2.035590 -0.193380 
		CHANNELS 3 Zrotation Yrotation Xrotation
		JOINT Spine1
		{
			OFFSET 0.056720 2.048850 -0.042750 
			CHANNELS 3 Zrotation Yrotation Xrotation
			JOINT Neck1
			{
				OFFSET -0.054170 1.746240 0.172020 
				CHANNELS 3 Zrotation Yrotation Xrotation
				JOINT Head
				{
					OFFSET 0.104070 1.761360 -0.123970 
					CHANNELS 3 Zrotation Yrotation Xrotation
					End Site
					{
						OFFSET 0.000000 0.000000 0.000000 
					}
				}
			}
			JOINT LeftArm
			{
				OFFSET 3.362410 1.200890 -0.311210 
				CHANNELS 3 Zrotation Yrotation Xrotation
				JOINT LeftForeArm
				{
					OFFSET 4.983000 -0.000000 -0.000000 
					CHANNELS 3 Zrotation Yrotation Xrotation
					JOINT LeftHand
					{
						OFFSET 3.483560 -0.000000 -0.000000 
						CHANNELS 3 Zrotation Yrotation Xrotation
						JOINT LeftHandIndex1
						{
							OFFSET 0.715260 -0.000000 -0.000000 
							CHANNELS 3 Zrotation Yrotation Xrotation
							End Site
							{
								OFFSET 0.000000 0.000000 0.000000 
							}
						}
					}
				}
			}
			JOINT RightArm
			{
				OFFSET -3.136600 1.374050 -0.404650 
				CHANNELS 3 Zrotation Yrotation Xrotation
				JOINT RightForeArm
				{
					OFFSET -5.241900 -0.000000 -0.000000 
					CHANNELS 3 Zrotation Yrotation Xrotation
					JOINT RightHand
					{
						OFFSET -3.444170 -0.000000 -0.000000 
						CHANNELS 3 Zrotation Yrotation Xrotation
						JOINT RightHandIndex1
						{
							OFFSET -0.622530 -0.000000 -0.000000 
							CHANNELS 3 Zrotation Yrotation Xrotation
							End Site
							{
								OFFSET 0.000000 0.000000 0.000000 
							}
						}
					}
				}
			}
		}
	}
}
MOTION
Frames: 18
Frame Time: 0.041667
3.116353 17.779682 7.911966 -4.941662 62.731984 -7.842401 -0.268335 -11.859916 -27.197277 7.774964 15.522759 52.841383 5.253511 -11.261983 50.522203 0.607700 4.989800 13.879400 14.815353 25.450091 -14.601085 -3.260833 -8.865561 31.760029 4.564156 -15.013358 -1.363430 -0.067300 1.673200 -4.603400 -6.425331 3.724533 14.423362 -1.646260 2.104666 -3.901047 -1.541178 3.892823 40.415234 0.771100 1.861800 10.989000 -64.772383 -11.185261 7.931387 20.493111 -30.001643 -6.657749 -0.455616 -1.888238 -15.209209 -7.125000 0.000000 0.000000 45.142091 30.434583 9.105683 -93.615180 59.356560 -71.196810 0.172862 2.291525 14.119454 7.125000 0.000000 0.000000 
3.111449 17.805086 7.943352 -4.357902 63.368241 -7.069670 -0.469832 -11.771065 -28.400510 7.640653 15.525898 53.051199 4.575065 -12.239871 46.376570 0.380800 3.963100 10.972800 14.483616 25.398911 -14.700837 -3.242102 -8.826402 31.610427 4.766370 -15.582529 -1.696884 -0.065100 1.646100 -4.528600 -6.439984 3.869981 14.534922 -1.385985 2.193044 -4.109543 -1.142443 3.548522 40.284737 0.890800 1.736400 10.914200 -66.092257 -11.118128 10.382380 21.020431 -30.553774 -6.932527 -0.403855 -1.839887 -14.561048 -7.125000 0.000000 0.000000 48.418809 30.550948 11.860116 -88.090849 58.512566 -66.720977 0.298538 2.324210 14.206919 7.125000 0.000000 0.000000 
3.109586 17.837355 7.971403 -4.009751 63.942497 -6.409736 -0.594190 -11.535553 -29.620164 7.501922 15.514239 53.028457 3.981617 -12.897640 41.833745 0.151800 2.510600 6.919100 14.259236 25.491781 -14.782397 -3.208725 -8.757618 31.384829 5.007278 -16.256815 -2.155314 -0.064900 1.643500 -4.521400 -6.556039 4.085148 14.552947 -1.352421 2.308529 -4.349965 -0.573360 3.139368 40.214681 1.077900 1.591300 10.860900 -67.269847 -11.057234 12.933243 21.493876 -31.048614 -7.190160 -0.350846 -1.801699 -13.700139 -7.125000 0.000000 0.000000 51.552630 30.389443 14.246002 -82.357495 57.331674 -61.702877 0.384966 2.308609 14.280254 7.125000 0.000000 0.000000 
3.108997 17.866681 7.995825 -3.505568 64.562764 -5.516729 -0.794373 -11.401317 -30.810599 7.391887 15.475728 52.782152 3.521605 -12.850451 37.461300 0.037100 1.243700 3.419700 13.895490 25.643078 -14.936714 -3.159457 -8.674796 31.104423 5.216293 -16.836591 -2.644109 -0.055500 1.520300 -4.181700 -6.675380 4.269296 14.591116 -1.265905 2.411113 -4.524266 -0.171991 2.782468 40.124445 1.201300 1.457800 10.823100 -68.314057 -11.014572 15.496079 21.938040 -31.507118 -7.438356 -0.308283 -1.771506 -12.813290 -7.125000 0.000000 0.000000 54.471145 30.207405 16.150056 -76.432929 55.859320 -56.166663 0.440241 2.235663 14.461424 7.125000 0.000000 0.000000 
3.111057 17.894242 8.017992 -2.624921 65.292689 -4.236810 -1.132721 -11.427542 -31.910710 7.272925 15.393432 52.303800 3.174800 -12.237880 33.638031 0.006900 0.537400 1.476600 13.306462 25.698454 -15.150522 -3.099793 -8.589299 30.773849 5.421805 -17.403286 -3.025136 -0.053900 1.498700 -4.122300 -6.923631 4.369953 14.614131 -1.077630 2.471198 -4.707371 -0.018971 2.480639 40.043622 1.218500 1.338700 10.805400 -69.255183 -10.847440 17.927973 22.442788 -32.032989 -7.730290 -0.283050 -1.738000 -11.763128 -7.125000 0.000000 0.000000 57.375184 29.971735 17.761590 -70.643345 54.262397 -50.513988 0.470591 2.115187 14.748137 7.125000 0.000000 0.000000 
3.115569 17.924843 8.038197 -1.476203 66.017176 -2.704408 -1.549158 -11.487798 -32.892366 7.100883 15.260240 51.563606 2.892977 -11.279753 30.305465 0.000500 0.150300 0.412900 12.610798 25.699257 -15.350234 -3.037696 -8.498518 30.398686 5.682073 -18.119981 -3.311012 -0.061800 1.604400 -4.413600 -7.388987 4.503160 14.630796 -0.964030 2.539699 -4.908549 0.138607 2.150093 39.973245 1.217300 1.217700 10.799800 -70.079017 -10.619268 20.397054 22.997481 -32.611987 -8.063634 -0.264344 -1.695303 -10.401536 -7.125000 0.000000 0.000000 60.255175 29.609106 18.952817 -65.060572 52.603230 -44.926792 0.476324 1.972527 14.872795 7.125000 0.000000 0.000000 
3.123513 17.957210 8.059579 -0.635063 66.641508 -1.538031 -1.803299 -11.512165 -33.673073 6.846406 15.070218 50.545921 2.670855 -10.344819 27.461147 0.004900 -0.451100 -1.239400 12.135590 25.829063 -15.321950 -2.967594 -8.382359 29.982535 5.966557 -18.898194 -3.714703 -0.052200 1.473900 -4.053700 -7.457014 4.577172 14.827209 -0.753214 2.599451 -5.017546 0.240241 1.995349 39.683921 1.258100 1.139000 10.710200 -71.049385 -10.424073 22.467151 23.587492 -33.209109 -8.425842 -0.231137 -1.669274 -8.961548 -7.125000 0.000000 0.000000 62.822905 29.433479 19.687879 -59.503636 50.790107 -39.358590 0.480440 1.805746 15.392603 7.125000 0.000000 0.000000 
3.132145 17.994776 8.078901 -0.167654 67.282192 -0.769343 -1.857206 -11.582211 -34.270357 6.513365 14.817238 49.256042 2.495867 -9.395029 25.207557 0.030200 -1.121500 -3.083300 11.868795 25.946101 -15.180498 -2.886788 -8.248085 29.541055 6.220841 -19.588324 -4.178292 -0.037000 1.241700 -3.414000 -7.084939 4.548406 15.253006 -0.465014 2.628518 -4.980663 0.242683 1.973658 39.199344 1.324700 1.075000 10.571800 -72.175641 -10.317128 24.167839 24.231546 -33.831920 -8.796639 -0.372990 -1.638097 -7.430412 -7.125000 0.000000 0.000000 64.820346 29.520001 20.004851 -54.071679 48.786110 -33.983545 0.497087 1.610734 16.434159 7.125000 0.000000 0.000000 
3.139403 18.031164 8.094202 0.524274 68.003278 0.256872 -1.877861 -11.850287 -34.735610 6.118952 14.501321 47.737252 2.337029 -8.273847 23.687911 0.033800 -1.186900 -3.263300 11.489712 25.817435 -15.171214 -2.793493 -8.110896 29.062845 6.424154 -20.131610 -4.531853 -0.032400 1.162800 -3.196800 -7.213783 4.548333 15.535375 -0.412608 2.642967 -5.048071 0.406882 1.826750 38.773280 1.393400 0.998700 10.453800 -73.035782 -10.301888 25.854321 24.752669 -34.334445 -9.125574 -0.364483 -1.620823 -5.932106 -7.125000 0.000000 0.000000 66.875468 29.402453 20.008052 -49.093667 46.686702 -29.184438 0.531523 1.410027 17.807752 7.125000 0.000000 0.000000 
3.147151 18.060491 8.110974 1.131495 68.691205 1.252475 -1.763382 -12.251494 -35.116531 5.680031 14.137680 46.047973 2.190337 -7.100836 22.778654 0.011700 -0.699100 -1.921100 11.148238 25.674274 -15.210307 -2.689169 -7.962577 28.563091 6.592275 -20.578870 -4.994892 -0.023900 0.997400 -2.741500 -7.537460 4.592625 15.575527 -0.406849 2.669512 -5.313025 0.418542 1.632244 38.416008 1.354600 0.919800 10.331700 -73.694167 -10.079472 27.910338 25.332087 -34.905826 -9.512874 -0.301564 -1.639244 -5.605031 -7.125000 0.000000 0.000000 68.929160 29.010370 19.777158 -44.695259 44.556136 -25.093269 0.568799 1.224245 19.344513 7.125000 0.000000 0.000000 
3.159117 18.092367 8.126569 1.653822 69.384624 2.249091 -1.590001 -12.698299 -35.518975 5.202236 13.725170 44.229427 2.066006 -6.143928 22.029028 0.009700 -0.635100 -1.745200 10.819036 25.619637 -15.282299 -2.582903 -7.806323 28.043376 6.776798 -21.074728 -5.494200 -0.017200 0.845700 -2.324400 -7.477951 4.608772 15.616586 -0.225287 2.706988 -5.466546 0.286816 1.452698 37.922368 1.295500 0.813300 10.149400 -74.358427 -9.569023 30.062830 26.184702 -35.730086 -10.077676 -0.314583 -1.654016 -6.029836 -7.125000 0.000000 0.000000 70.238300 28.654355 19.550814 -40.604118 42.249469 -21.403531 0.618158 1.045351 20.739275 7.125000 0.000000 0.000000 
3.178439 18.124734 8.137161 1.868772 69.943814 2.916509 -1.303050 -13.045807 -35.805506 4.700289 13.275055 42.311601 1.958378 -5.333304 21.299082 0.026100 -1.042000 -2.864400 10.604992 25.649119 -15.266247 -2.481433 -7.642272 27.513494 6.977233 -21.608049 -5.858706 -0.011700 0.699500 -1.922200 -7.294321 4.689859 15.713048 -0.131425 2.779115 -5.541597 0.224897 1.202370 37.419853 1.269300 0.670500 9.973900 -74.980974 -9.167171 31.505811 26.795820 -36.298810 -10.488200 -0.342465 -1.622322 -5.123023 -7.125000 0.000000 0.000000 71.151725 28.290927 19.414846 -36.926709 39.854066 -18.208150 0.670021 0.883397 21.878843 7.125000 0.000000 0.000000 
3.203842 18.152786 8.145498 2.347394 70.350887 3.792735 -1.055657 -13.383338 -35.926717 4.195650 12.789288 40.342942 1.834003 -4.550061 20.348435 0.068000 -1.682300 -4.628400 10.277035 25.714892 -15.201439 -2.366751 -7.461836 26.934981 7.131263 -22.004421 -6.222277 -0.005300 0.469700 -1.290700 -7.550772 5.034985 15.800450 -0.229398 2.956392 -5.614272 0.379125 0.699418 37.139499 1.227100 0.474300 9.918200 -75.436153 -9.149890 33.833637 27.293904 -36.743622 -10.810669 -0.432707 -1.647836 -6.414681 -7.125000 0.000000 0.000000 72.165242 27.785075 18.919208 -33.809394 37.555511 -15.604252 0.699522 0.747064 22.889128 7.125000 0.000000 0.000000 
3.223949 18.173089 8.154424 2.862139 70.812867 4.723303 -0.742851 -13.752017 -36.030813 3.693369 12.274459 38.315526 1.695584 -3.694039 19.535991 0.091400 -1.950300 -5.368300 9.962034 25.656074 -15.203919 -2.253068 -7.282395 26.350743 7.293893 -22.423616 -6.528485 -0.003100 0.361400 -0.993000 -7.954918 5.503736 15.867319 -0.401205 3.183868 -5.733539 0.592817 0.008144 36.850945 1.150700 0.216000 9.883900 -75.638940 -9.611642 35.793389 27.440209 -36.866848 -10.934331 -0.317350 -1.677564 -6.050083 -7.125000 0.000000 0.000000 73.044719 27.203594 18.279055 -31.148161 35.369618 -13.461595 0.716115 0.636067 23.724160 7.125000 0.000000 0.000000 
3.239446 18.191234 8.164624 2.359465 71.369232 4.660691 -0.062289 -14.088979 -36.102719 3.194173 11.734828 36.221244 1.586081 -2.903366 19.068608 0.092200 -1.958200 -5.390300 10.062452 25.623515 -15.159859 -2.158382 -7.113434 25.842250 7.506524 -22.996462 -6.879157 -0.003100 0.357800 -0.983200 -7.678441 5.600804 15.927691 -0.367898 3.258455 -5.945078 0.671785 -0.309871 36.443787 1.160500 0.059400 9.753900 -76.061099 -9.624154 37.830303 27.914724 -37.293927 -11.280814 -0.226562 -1.742805 -7.466005 -7.125000 0.000000 0.000000 73.656718 26.565548 18.736350 -28.825634 33.272606 -11.686690 0.738010 0.541387 24.049270 7.125000 0.000000 0.000000 
3.251412 18.208594 8.174138 1.819143 72.045983 4.708470 0.688919 -14.526735 -36.285950 2.701851 11.156401 34.076079 1.495305 -2.227640 18.718942 0.112500 -2.162900 -5.956000 10.111829 25.599850 -15.335939 -2.077409 -6.969105 25.405580 7.702991 -23.537862 -7.272568 -0.004000 0.409700 -1.125700 -6.916644 5.374401 15.973987 -0.033885 3.202493 -6.075780 0.695392 -0.308880 36.013243 1.256400 0.002700 9.595600 -76.843364 -9.453630 38.487977 28.144416 -37.484372 -11.465435 -0.172426 -1.661602 -6.159180 -7.125000 0.000000 0.000000 73.965921 25.976085 20.019457 -26.742858 31.225311 -10.171808 0.762787 0.453918 24.046289 7.125000 0.000000 0.000000 
3.261613 18.222718 8.178552 1.529089 72.876736 5.230746 1.452329 -15.139756 -36.679476 2.229100 10.551635 31.909732 1.404384 -1.599887 18.390355 0.129400 -2.319000 -6.388200 9.972017 25.349817 -15.880551 -1.994562 -6.836233 24.959637 7.874160 -24.008890 -7.556556 -0.002700 0.337800 -0.928300 -6.232056 5.092544 15.923308 0.290218 3.114382 -6.093136 0.674720 -0.310930 35.690002 1.325000 -0.050400 9.492500 -77.686470 -9.349639 39.382182 28.506451 -37.776947 -11.716499 -0.221387 -1.612284 -5.863781 -7.125000 0.000000 0.000000 74.110034 25.338004 21.620608 -24.873992 29.259075 -8.878010 0.776269 0.376031 23.980967 7.125000 0.000000 0.000000 
3.276423 18.238901 8.176885 1.406016 73.658331 5.777452 2.236960 -15.877263 -36.828783 1.781689 9.909228 29.716260 1.287392 -0.894575 18.072893 0.115300 -2.189500 -6.029700 9.822434 24.962976 -16.324091 -1.911260 -6.708523 24.516667 8.030828 -24.432768 -7.765620 -0.001900 0.285100 -0.783400 -5.679587 4.834506 15.876946 0.507656 3.025510 -6.182936 0.791236 -0.371175 35.428886 1.433200 -0.115500 9.413400 -78.333642 -9.281798 40.428632 28.832430 -38.047357 -11.954084 -0.214839 -1.610525 -5.698823 -7.125000 0.000000 0.000000 74.156674 24.537149 23.761152 -23.204661 27.415856 -7.786496 0.814633 0.295342 23.423328 7.125000 0.000000 0.000000 
